<mxfile host="app.diagrams.net" modified="2022-08-31T08:31:46.063Z" agent="5.0 (Windows NT 10.0; Win64; x64) AppleWebKit/537.36 (KHTML, like Gecko) Chrome/104.0.0.0 Safari/537.36" etag="bDHViheAaQtA5z4RQlmz" version="20.2.7" type="github">
  <diagram id="MOCfylMsnCIvvlgl1xw0" name="Page-1">
    <mxGraphModel dx="1093" dy="601" grid="1" gridSize="10" guides="1" tooltips="1" connect="1" arrows="1" fold="1" page="1" pageScale="1" pageWidth="827" pageHeight="1169" math="0" shadow="0">
      <root>
        <mxCell id="0" />
        <mxCell id="1" parent="0" />
        <mxCell id="Ect1OlIU-bGFGrDeoyx3-1" value="Start" style="rounded=1;whiteSpace=wrap;html=1;fontSize=30;" parent="1" vertex="1">
          <mxGeometry x="40" y="40" width="120" height="80" as="geometry" />
        </mxCell>
        <mxCell id="Ect1OlIU-bGFGrDeoyx3-2" value="" style="endArrow=classic;html=1;rounded=0;fontSize=30;exitX=1;exitY=0.5;exitDx=0;exitDy=0;entryX=0;entryY=0.5;entryDx=0;entryDy=0;" parent="1" source="Ect1OlIU-bGFGrDeoyx3-1" target="Ect1OlIU-bGFGrDeoyx3-5" edge="1">
          <mxGeometry width="50" height="50" relative="1" as="geometry">
            <mxPoint x="160" y="90" as="sourcePoint" />
            <mxPoint x="240" y="80" as="targetPoint" />
          </mxGeometry>
        </mxCell>
        <mxCell id="Ect1OlIU-bGFGrDeoyx3-8" value="" style="edgeStyle=orthogonalEdgeStyle;rounded=0;orthogonalLoop=1;jettySize=auto;html=1;fontSize=30;" parent="1" source="Ect1OlIU-bGFGrDeoyx3-5" target="Ect1OlIU-bGFGrDeoyx3-7" edge="1">
          <mxGeometry relative="1" as="geometry" />
        </mxCell>
        <mxCell id="Ect1OlIU-bGFGrDeoyx3-5" value="Wake Up" style="shape=parallelogram;perimeter=parallelogramPerimeter;whiteSpace=wrap;html=1;fixedSize=1;fontSize=30;" parent="1" vertex="1">
          <mxGeometry x="240" y="40" width="120" height="80" as="geometry" />
        </mxCell>
        <mxCell id="Ect1OlIU-bGFGrDeoyx3-10" value="" style="edgeStyle=orthogonalEdgeStyle;rounded=0;orthogonalLoop=1;jettySize=auto;html=1;fontSize=30;" parent="1" source="Ect1OlIU-bGFGrDeoyx3-7" target="Ect1OlIU-bGFGrDeoyx3-9" edge="1">
          <mxGeometry relative="1" as="geometry" />
        </mxCell>
        <mxCell id="Ect1OlIU-bGFGrDeoyx3-7" value="Get Ready" style="whiteSpace=wrap;html=1;fontSize=30;" parent="1" vertex="1">
          <mxGeometry x="440" y="40" width="120" height="80" as="geometry" />
        </mxCell>
        <mxCell id="Ect1OlIU-bGFGrDeoyx3-12" value="" style="edgeStyle=orthogonalEdgeStyle;rounded=0;orthogonalLoop=1;jettySize=auto;html=1;fontSize=30;entryX=1;entryY=0.5;entryDx=0;entryDy=0;" parent="1" source="Ect1OlIU-bGFGrDeoyx3-9" target="Ect1OlIU-bGFGrDeoyx3-16" edge="1">
          <mxGeometry relative="1" as="geometry">
            <mxPoint x="360" y="240" as="targetPoint" />
          </mxGeometry>
        </mxCell>
        <mxCell id="Ect1OlIU-bGFGrDeoyx3-32" value="" style="edgeStyle=orthogonalEdgeStyle;rounded=0;orthogonalLoop=1;jettySize=auto;html=1;fontSize=20;" parent="1" source="Ect1OlIU-bGFGrDeoyx3-9" edge="1">
          <mxGeometry relative="1" as="geometry">
            <mxPoint x="500" y="360" as="targetPoint" />
          </mxGeometry>
        </mxCell>
        <mxCell id="Ect1OlIU-bGFGrDeoyx3-9" value="Late?" style="rhombus;whiteSpace=wrap;html=1;fontSize=30;" parent="1" vertex="1">
          <mxGeometry x="440" y="200" width="120" height="80" as="geometry" />
        </mxCell>
        <mxCell id="Ect1OlIU-bGFGrDeoyx3-13" value="&lt;font style=&quot;font-size: 20px;&quot;&gt;Yes&lt;/font&gt;" style="text;html=1;align=center;verticalAlign=middle;resizable=0;points=[];autosize=1;strokeColor=none;fillColor=none;fontSize=30;" parent="1" vertex="1">
          <mxGeometry x="370" y="200" width="60" height="50" as="geometry" />
        </mxCell>
        <mxCell id="Ect1OlIU-bGFGrDeoyx3-23" value="" style="edgeStyle=orthogonalEdgeStyle;rounded=0;orthogonalLoop=1;jettySize=auto;html=1;fontSize=20;" parent="1" source="Ect1OlIU-bGFGrDeoyx3-16" target="Ect1OlIU-bGFGrDeoyx3-22" edge="1">
          <mxGeometry relative="1" as="geometry" />
        </mxCell>
        <mxCell id="Ect1OlIU-bGFGrDeoyx3-16" value="Get In Car" style="shape=parallelogram;perimeter=parallelogramPerimeter;whiteSpace=wrap;html=1;fixedSize=1;fontSize=30;" parent="1" vertex="1">
          <mxGeometry x="240" y="200" width="120" height="80" as="geometry" />
        </mxCell>
        <mxCell id="Ect1OlIU-bGFGrDeoyx3-17" value="Waiting" style="whiteSpace=wrap;html=1;fontSize=30;" parent="1" vertex="1">
          <mxGeometry x="40" y="200" width="120" height="80" as="geometry" />
        </mxCell>
        <mxCell id="Ect1OlIU-bGFGrDeoyx3-21" value="" style="endArrow=classic;html=1;rounded=0;fontSize=20;exitX=1;exitY=0.5;exitDx=0;exitDy=0;entryX=0;entryY=0.5;entryDx=0;entryDy=0;" parent="1" source="Ect1OlIU-bGFGrDeoyx3-17" target="Ect1OlIU-bGFGrDeoyx3-16" edge="1">
          <mxGeometry width="50" height="50" relative="1" as="geometry">
            <mxPoint x="200" y="470" as="sourcePoint" />
            <mxPoint x="250" y="420" as="targetPoint" />
          </mxGeometry>
        </mxCell>
        <mxCell id="Ect1OlIU-bGFGrDeoyx3-27" value="" style="edgeStyle=orthogonalEdgeStyle;rounded=0;orthogonalLoop=1;jettySize=auto;html=1;fontSize=20;entryX=0.5;entryY=1;entryDx=0;entryDy=0;" parent="1" source="Ect1OlIU-bGFGrDeoyx3-22" target="Ect1OlIU-bGFGrDeoyx3-17" edge="1">
          <mxGeometry relative="1" as="geometry">
            <mxPoint x="160" y="400" as="targetPoint" />
          </mxGeometry>
        </mxCell>
        <mxCell id="Ect1OlIU-bGFGrDeoyx3-51" value="" style="edgeStyle=orthogonalEdgeStyle;rounded=0;orthogonalLoop=1;jettySize=auto;html=1;fontSize=20;" parent="1" source="Ect1OlIU-bGFGrDeoyx3-22" target="Ect1OlIU-bGFGrDeoyx3-50" edge="1">
          <mxGeometry relative="1" as="geometry" />
        </mxCell>
        <mxCell id="Ect1OlIU-bGFGrDeoyx3-22" value="Arrive?" style="rhombus;whiteSpace=wrap;html=1;fontSize=30;" parent="1" vertex="1">
          <mxGeometry x="240" y="360" width="120" height="80" as="geometry" />
        </mxCell>
        <mxCell id="Ect1OlIU-bGFGrDeoyx3-29" value="&lt;font style=&quot;font-size: 20px;&quot;&gt;No&lt;/font&gt;" style="text;html=1;align=center;verticalAlign=middle;resizable=0;points=[];autosize=1;strokeColor=none;fillColor=none;fontSize=30;" parent="1" vertex="1">
          <mxGeometry x="195" y="360" width="50" height="50" as="geometry" />
        </mxCell>
        <mxCell id="Ect1OlIU-bGFGrDeoyx3-33" value="&lt;font style=&quot;font-size: 20px;&quot;&gt;No&lt;/font&gt;" style="text;html=1;align=center;verticalAlign=middle;resizable=0;points=[];autosize=1;strokeColor=none;fillColor=none;fontSize=30;" parent="1" vertex="1">
          <mxGeometry x="490" y="290" width="50" height="50" as="geometry" />
        </mxCell>
        <mxCell id="Ect1OlIU-bGFGrDeoyx3-38" value="" style="edgeStyle=orthogonalEdgeStyle;rounded=0;orthogonalLoop=1;jettySize=auto;html=1;fontSize=20;" parent="1" source="Ect1OlIU-bGFGrDeoyx3-34" target="Ect1OlIU-bGFGrDeoyx3-37" edge="1">
          <mxGeometry relative="1" as="geometry" />
        </mxCell>
        <mxCell id="Ect1OlIU-bGFGrDeoyx3-34" value="Play Games" style="whiteSpace=wrap;html=1;fontSize=30;" parent="1" vertex="1">
          <mxGeometry x="440" y="360" width="120" height="80" as="geometry" />
        </mxCell>
        <mxCell id="Ect1OlIU-bGFGrDeoyx3-37" value="Time?" style="rhombus;whiteSpace=wrap;html=1;fontSize=30;" parent="1" vertex="1">
          <mxGeometry x="440" y="520" width="120" height="80" as="geometry" />
        </mxCell>
        <mxCell id="Ect1OlIU-bGFGrDeoyx3-45" value="" style="endArrow=classic;html=1;rounded=0;fontSize=20;exitX=1;exitY=0.5;exitDx=0;exitDy=0;entryX=1;entryY=0.5;entryDx=0;entryDy=0;" parent="1" source="Ect1OlIU-bGFGrDeoyx3-37" target="Ect1OlIU-bGFGrDeoyx3-34" edge="1">
          <mxGeometry width="50" height="50" relative="1" as="geometry">
            <mxPoint x="390" y="400" as="sourcePoint" />
            <mxPoint x="440" y="350" as="targetPoint" />
            <Array as="points">
              <mxPoint x="600" y="560" />
              <mxPoint x="600" y="400" />
            </Array>
          </mxGeometry>
        </mxCell>
        <mxCell id="Ect1OlIU-bGFGrDeoyx3-46" value="&lt;font style=&quot;font-size: 20px;&quot;&gt;No&lt;/font&gt;" style="text;html=1;align=center;verticalAlign=middle;resizable=0;points=[];autosize=1;strokeColor=none;fillColor=none;fontSize=30;" parent="1" vertex="1">
          <mxGeometry x="560" y="520" width="50" height="50" as="geometry" />
        </mxCell>
        <mxCell id="Ect1OlIU-bGFGrDeoyx3-47" value="" style="endArrow=classic;html=1;rounded=0;fontSize=20;entryX=0.75;entryY=1;entryDx=0;entryDy=0;" parent="1" target="Ect1OlIU-bGFGrDeoyx3-16" edge="1">
          <mxGeometry width="50" height="50" relative="1" as="geometry">
            <mxPoint x="440" y="560" as="sourcePoint" />
            <mxPoint x="380" y="300" as="targetPoint" />
            <Array as="points">
              <mxPoint x="400" y="560" />
              <mxPoint x="400" y="320" />
              <mxPoint x="330" y="320" />
            </Array>
          </mxGeometry>
        </mxCell>
        <mxCell id="Ect1OlIU-bGFGrDeoyx3-48" value="&lt;font style=&quot;font-size: 20px;&quot;&gt;Yes&lt;/font&gt;" style="text;html=1;align=center;verticalAlign=middle;resizable=0;points=[];autosize=1;strokeColor=none;fillColor=none;fontSize=30;" parent="1" vertex="1">
          <mxGeometry x="394" y="520" width="60" height="50" as="geometry" />
        </mxCell>
        <mxCell id="Ect1OlIU-bGFGrDeoyx3-56" value="" style="edgeStyle=orthogonalEdgeStyle;rounded=0;orthogonalLoop=1;jettySize=auto;html=1;fontSize=20;" parent="1" source="Ect1OlIU-bGFGrDeoyx3-50" target="Ect1OlIU-bGFGrDeoyx3-55" edge="1">
          <mxGeometry relative="1" as="geometry" />
        </mxCell>
        <mxCell id="Ect1OlIU-bGFGrDeoyx3-50" value="Register At Desk" style="whiteSpace=wrap;html=1;fontSize=30;" parent="1" vertex="1">
          <mxGeometry x="240" y="520" width="120" height="80" as="geometry" />
        </mxCell>
        <mxCell id="Ect1OlIU-bGFGrDeoyx3-52" value="&lt;font style=&quot;font-size: 20px;&quot;&gt;Yes&lt;/font&gt;" style="text;html=1;align=center;verticalAlign=middle;resizable=0;points=[];autosize=1;strokeColor=none;fillColor=none;fontSize=30;" parent="1" vertex="1">
          <mxGeometry x="290" y="460" width="60" height="50" as="geometry" />
        </mxCell>
        <mxCell id="Ect1OlIU-bGFGrDeoyx3-58" value="" style="edgeStyle=orthogonalEdgeStyle;rounded=0;orthogonalLoop=1;jettySize=auto;html=1;fontSize=20;" parent="1" source="Ect1OlIU-bGFGrDeoyx3-55" target="Ect1OlIU-bGFGrDeoyx3-57" edge="1">
          <mxGeometry relative="1" as="geometry" />
        </mxCell>
        <mxCell id="Ect1OlIU-bGFGrDeoyx3-62" value="" style="edgeStyle=orthogonalEdgeStyle;rounded=0;orthogonalLoop=1;jettySize=auto;html=1;fontSize=20;" parent="1" source="Ect1OlIU-bGFGrDeoyx3-55" target="Ect1OlIU-bGFGrDeoyx3-61" edge="1">
          <mxGeometry relative="1" as="geometry" />
        </mxCell>
        <mxCell id="Ect1OlIU-bGFGrDeoyx3-55" value="Open?" style="rhombus;whiteSpace=wrap;html=1;fontSize=30;" parent="1" vertex="1">
          <mxGeometry x="240" y="680" width="120" height="80" as="geometry" />
        </mxCell>
        <mxCell id="Ect1OlIU-bGFGrDeoyx3-57" value="Waiting" style="whiteSpace=wrap;html=1;fontSize=30;" parent="1" vertex="1">
          <mxGeometry x="50" y="520" width="120" height="80" as="geometry" />
        </mxCell>
        <mxCell id="Ect1OlIU-bGFGrDeoyx3-59" value="&lt;font style=&quot;font-size: 20px;&quot;&gt;No&lt;/font&gt;" style="text;html=1;align=center;verticalAlign=middle;resizable=0;points=[];autosize=1;strokeColor=none;fillColor=none;fontSize=30;" parent="1" vertex="1">
          <mxGeometry x="195" y="680" width="50" height="50" as="geometry" />
        </mxCell>
        <mxCell id="Ect1OlIU-bGFGrDeoyx3-60" value="" style="endArrow=classic;html=1;rounded=0;fontSize=20;exitX=0.75;exitY=1;exitDx=0;exitDy=0;entryX=0.5;entryY=0;entryDx=0;entryDy=0;" parent="1" source="Ect1OlIU-bGFGrDeoyx3-57" target="Ect1OlIU-bGFGrDeoyx3-55" edge="1">
          <mxGeometry width="50" height="50" relative="1" as="geometry">
            <mxPoint x="170" y="670" as="sourcePoint" />
            <mxPoint x="220" y="620" as="targetPoint" />
            <Array as="points">
              <mxPoint x="140" y="680" />
            </Array>
          </mxGeometry>
        </mxCell>
        <mxCell id="Ect1OlIU-bGFGrDeoyx3-65" value="" style="edgeStyle=orthogonalEdgeStyle;rounded=0;orthogonalLoop=1;jettySize=auto;html=1;fontSize=20;" parent="1" source="Ect1OlIU-bGFGrDeoyx3-61" target="Ect1OlIU-bGFGrDeoyx3-64" edge="1">
          <mxGeometry relative="1" as="geometry" />
        </mxCell>
        <mxCell id="Ect1OlIU-bGFGrDeoyx3-61" value="Go In Room" style="whiteSpace=wrap;html=1;fontSize=30;" parent="1" vertex="1">
          <mxGeometry x="440" y="680" width="120" height="80" as="geometry" />
        </mxCell>
        <mxCell id="Ect1OlIU-bGFGrDeoyx3-63" value="&lt;font style=&quot;font-size: 20px;&quot;&gt;Yes&lt;/font&gt;" style="text;html=1;align=center;verticalAlign=middle;resizable=0;points=[];autosize=1;strokeColor=none;fillColor=none;fontSize=30;" parent="1" vertex="1">
          <mxGeometry x="360" y="680" width="60" height="50" as="geometry" />
        </mxCell>
        <mxCell id="Ect1OlIU-bGFGrDeoyx3-67" value="" style="edgeStyle=orthogonalEdgeStyle;rounded=0;orthogonalLoop=1;jettySize=auto;html=1;fontSize=20;" parent="1" source="Ect1OlIU-bGFGrDeoyx3-64" edge="1">
          <mxGeometry relative="1" as="geometry">
            <mxPoint x="700" y="840" as="targetPoint" />
          </mxGeometry>
        </mxCell>
        <mxCell id="Ect1OlIU-bGFGrDeoyx3-70" value="" style="edgeStyle=orthogonalEdgeStyle;rounded=0;orthogonalLoop=1;jettySize=auto;html=1;fontSize=20;" parent="1" source="Ect1OlIU-bGFGrDeoyx3-64" target="Ect1OlIU-bGFGrDeoyx3-69" edge="1">
          <mxGeometry relative="1" as="geometry" />
        </mxCell>
        <mxCell id="Ect1OlIU-bGFGrDeoyx3-64" value="Time?" style="rhombus;whiteSpace=wrap;html=1;fontSize=30;" parent="1" vertex="1">
          <mxGeometry x="640" y="680" width="120" height="80" as="geometry" />
        </mxCell>
        <mxCell id="Ect1OlIU-bGFGrDeoyx3-68" value="&lt;font style=&quot;font-size: 20px;&quot;&gt;No&lt;/font&gt;" style="text;html=1;align=center;verticalAlign=middle;resizable=0;points=[];autosize=1;strokeColor=none;fillColor=none;fontSize=30;" parent="1" vertex="1">
          <mxGeometry x="690" y="760" width="50" height="50" as="geometry" />
        </mxCell>
        <mxCell id="Ect1OlIU-bGFGrDeoyx3-74" value="" style="edgeStyle=orthogonalEdgeStyle;rounded=0;orthogonalLoop=1;jettySize=auto;html=1;fontSize=20;" parent="1" source="Ect1OlIU-bGFGrDeoyx3-69" target="Ect1OlIU-bGFGrDeoyx3-73" edge="1">
          <mxGeometry relative="1" as="geometry" />
        </mxCell>
        <mxCell id="Ect1OlIU-bGFGrDeoyx3-69" value="Get Ready" style="whiteSpace=wrap;html=1;fontSize=30;" parent="1" vertex="1">
          <mxGeometry x="640" y="520" width="120" height="80" as="geometry" />
        </mxCell>
        <mxCell id="Ect1OlIU-bGFGrDeoyx3-71" value="&lt;font style=&quot;font-size: 20px;&quot;&gt;Yes&lt;/font&gt;" style="text;html=1;align=center;verticalAlign=middle;resizable=0;points=[];autosize=1;strokeColor=none;fillColor=none;fontSize=30;" parent="1" vertex="1">
          <mxGeometry x="690" y="640" width="60" height="50" as="geometry" />
        </mxCell>
        <mxCell id="Ect1OlIU-bGFGrDeoyx3-72" value="" style="endArrow=classic;html=1;rounded=0;fontSize=20;exitX=0;exitY=0.5;exitDx=0;exitDy=0;entryX=0;entryY=0.5;entryDx=0;entryDy=0;" parent="1" target="Ect1OlIU-bGFGrDeoyx3-64" edge="1">
          <mxGeometry width="50" height="50" relative="1" as="geometry">
            <mxPoint x="640" y="880" as="sourcePoint" />
            <mxPoint x="440" y="880" as="targetPoint" />
            <Array as="points">
              <mxPoint x="600" y="880" />
              <mxPoint x="600" y="800" />
              <mxPoint x="640" y="800" />
            </Array>
          </mxGeometry>
        </mxCell>
        <mxCell id="Ect1OlIU-bGFGrDeoyx3-76" value="" style="edgeStyle=orthogonalEdgeStyle;rounded=0;orthogonalLoop=1;jettySize=auto;html=1;fontSize=20;" parent="1" source="Ect1OlIU-bGFGrDeoyx3-73" target="Ect1OlIU-bGFGrDeoyx3-75" edge="1">
          <mxGeometry relative="1" as="geometry" />
        </mxCell>
        <mxCell id="Ect1OlIU-bGFGrDeoyx3-73" value="Teacher?" style="rhombus;whiteSpace=wrap;html=1;fontSize=30;" parent="1" vertex="1">
          <mxGeometry x="640" y="360" width="120" height="80" as="geometry" />
        </mxCell>
        <mxCell id="Ect1OlIU-bGFGrDeoyx3-78" value="" style="edgeStyle=orthogonalEdgeStyle;rounded=0;orthogonalLoop=1;jettySize=auto;html=1;fontSize=20;" parent="1" source="Ect1OlIU-bGFGrDeoyx3-75" target="Ect1OlIU-bGFGrDeoyx3-77" edge="1">
          <mxGeometry relative="1" as="geometry" />
        </mxCell>
        <mxCell id="Ect1OlIU-bGFGrDeoyx3-75" value="Learn" style="whiteSpace=wrap;html=1;fontSize=30;" parent="1" vertex="1">
          <mxGeometry x="640" y="200" width="120" height="80" as="geometry" />
        </mxCell>
        <mxCell id="Ect1OlIU-bGFGrDeoyx3-77" value="End" style="rounded=1;whiteSpace=wrap;html=1;fontSize=30;" parent="1" vertex="1">
          <mxGeometry x="640" y="40" width="120" height="80" as="geometry" />
        </mxCell>
        <mxCell id="Ect1OlIU-bGFGrDeoyx3-79" value="" style="endArrow=classic;html=1;rounded=0;fontSize=20;exitX=1;exitY=0.5;exitDx=0;exitDy=0;entryX=1;entryY=0.5;entryDx=0;entryDy=0;" parent="1" source="Ect1OlIU-bGFGrDeoyx3-73" edge="1">
          <mxGeometry width="50" height="50" relative="1" as="geometry">
            <mxPoint x="780" y="650" as="sourcePoint" />
            <mxPoint x="760" y="880" as="targetPoint" />
            <Array as="points">
              <mxPoint x="800" y="400" />
              <mxPoint x="800" y="880" />
            </Array>
          </mxGeometry>
        </mxCell>
        <mxCell id="Ect1OlIU-bGFGrDeoyx3-80" value="&lt;font style=&quot;font-size: 20px;&quot;&gt;No&lt;/font&gt;" style="text;html=1;align=center;verticalAlign=middle;resizable=0;points=[];autosize=1;strokeColor=none;fillColor=none;fontSize=30;" parent="1" vertex="1">
          <mxGeometry x="750" y="380" width="50" height="50" as="geometry" />
        </mxCell>
        <mxCell id="Ect1OlIU-bGFGrDeoyx3-81" value="&lt;font style=&quot;font-size: 20px;&quot;&gt;Yes&lt;/font&gt;" style="text;html=1;align=center;verticalAlign=middle;resizable=0;points=[];autosize=1;strokeColor=none;fillColor=none;fontSize=30;" parent="1" vertex="1">
          <mxGeometry x="690" y="320" width="60" height="50" as="geometry" />
        </mxCell>
        <mxCell id="Ect1OlIU-bGFGrDeoyx3-83" value="Play Games" style="rounded=0;whiteSpace=wrap;html=1;fontSize=30;" parent="1" vertex="1">
          <mxGeometry x="640" y="840" width="120" height="80" as="geometry" />
        </mxCell>
        <mxCell id="TXZ1IOUvcdeBmq6Gg83D-1" value="" style="endArrow=none;html=1;rounded=0;strokeWidth=6;" edge="1" parent="1">
          <mxGeometry width="50" height="50" relative="1" as="geometry">
            <mxPoint x="40" y="800" as="sourcePoint" />
            <mxPoint x="800" y="960" as="targetPoint" />
            <Array as="points">
              <mxPoint x="580" y="800" />
              <mxPoint x="580" y="960" />
            </Array>
          </mxGeometry>
        </mxCell>
        <mxCell id="TXZ1IOUvcdeBmq6Gg83D-2" value="Start" style="rounded=1;whiteSpace=wrap;html=1;fontSize=30;" vertex="1" parent="1">
          <mxGeometry x="40" y="840" width="120" height="80" as="geometry" />
        </mxCell>
        <mxCell id="TXZ1IOUvcdeBmq6Gg83D-3" value="End" style="rounded=1;whiteSpace=wrap;html=1;fontSize=30;" vertex="1" parent="1">
          <mxGeometry x="640" y="980" width="120" height="80" as="geometry" />
        </mxCell>
        <mxCell id="TXZ1IOUvcdeBmq6Gg83D-9" value="" style="edgeStyle=orthogonalEdgeStyle;rounded=0;orthogonalLoop=1;jettySize=auto;html=1;fontSize=30;strokeWidth=1;" edge="1" parent="1" source="TXZ1IOUvcdeBmq6Gg83D-6" target="TXZ1IOUvcdeBmq6Gg83D-8">
          <mxGeometry relative="1" as="geometry" />
        </mxCell>
        <mxCell id="TXZ1IOUvcdeBmq6Gg83D-6" value="Doge" style="shape=parallelogram;perimeter=parallelogramPerimeter;whiteSpace=wrap;html=1;fixedSize=1;fontSize=30;" vertex="1" parent="1">
          <mxGeometry x="240" y="840" width="120" height="80" as="geometry" />
        </mxCell>
        <mxCell id="TXZ1IOUvcdeBmq6Gg83D-7" value="" style="endArrow=classic;html=1;rounded=0;fontSize=30;strokeWidth=1;exitX=1;exitY=0.5;exitDx=0;exitDy=0;entryX=0;entryY=0.5;entryDx=0;entryDy=0;" edge="1" parent="1" source="TXZ1IOUvcdeBmq6Gg83D-2" target="TXZ1IOUvcdeBmq6Gg83D-6">
          <mxGeometry width="50" height="50" relative="1" as="geometry">
            <mxPoint x="200" y="1000" as="sourcePoint" />
            <mxPoint x="250" y="950" as="targetPoint" />
          </mxGeometry>
        </mxCell>
        <mxCell id="TXZ1IOUvcdeBmq6Gg83D-11" value="" style="edgeStyle=orthogonalEdgeStyle;rounded=0;orthogonalLoop=1;jettySize=auto;html=1;fontSize=30;strokeWidth=1;" edge="1" parent="1" source="TXZ1IOUvcdeBmq6Gg83D-8" target="TXZ1IOUvcdeBmq6Gg83D-10">
          <mxGeometry relative="1" as="geometry" />
        </mxCell>
        <mxCell id="TXZ1IOUvcdeBmq6Gg83D-8" value="Buy?" style="rhombus;whiteSpace=wrap;html=1;fontSize=30;" vertex="1" parent="1">
          <mxGeometry x="240" y="980" width="120" height="80" as="geometry" />
        </mxCell>
        <mxCell id="TXZ1IOUvcdeBmq6Gg83D-14" value="" style="edgeStyle=orthogonalEdgeStyle;rounded=0;orthogonalLoop=1;jettySize=auto;html=1;fontSize=30;strokeWidth=1;" edge="1" parent="1" source="TXZ1IOUvcdeBmq6Gg83D-10" target="TXZ1IOUvcdeBmq6Gg83D-13">
          <mxGeometry relative="1" as="geometry" />
        </mxCell>
        <mxCell id="TXZ1IOUvcdeBmq6Gg83D-10" value="Much Sad" style="whiteSpace=wrap;html=1;fontSize=30;" vertex="1" parent="1">
          <mxGeometry x="440" y="980" width="120" height="80" as="geometry" />
        </mxCell>
        <mxCell id="TXZ1IOUvcdeBmq6Gg83D-12" value="&lt;font style=&quot;font-size: 20px;&quot;&gt;No&lt;/font&gt;" style="text;html=1;align=center;verticalAlign=middle;resizable=0;points=[];autosize=1;strokeColor=none;fillColor=none;fontSize=30;" vertex="1" parent="1">
          <mxGeometry x="370" y="980" width="50" height="50" as="geometry" />
        </mxCell>
        <mxCell id="TXZ1IOUvcdeBmq6Gg83D-15" value="" style="edgeStyle=orthogonalEdgeStyle;rounded=0;orthogonalLoop=1;jettySize=auto;html=1;fontSize=30;strokeWidth=1;" edge="1" parent="1" source="TXZ1IOUvcdeBmq6Gg83D-13" target="TXZ1IOUvcdeBmq6Gg83D-6">
          <mxGeometry relative="1" as="geometry" />
        </mxCell>
        <mxCell id="TXZ1IOUvcdeBmq6Gg83D-13" value="Plz Buy" style="whiteSpace=wrap;html=1;fontSize=30;" vertex="1" parent="1">
          <mxGeometry x="440" y="840" width="120" height="80" as="geometry" />
        </mxCell>
        <mxCell id="TXZ1IOUvcdeBmq6Gg83D-16" value="Wow" style="whiteSpace=wrap;html=1;fontSize=30;" vertex="1" parent="1">
          <mxGeometry x="40" y="980" width="120" height="80" as="geometry" />
        </mxCell>
        <mxCell id="TXZ1IOUvcdeBmq6Gg83D-18" value="&lt;font style=&quot;font-size: 20px;&quot;&gt;Yes&lt;/font&gt;" style="text;html=1;align=center;verticalAlign=middle;resizable=0;points=[];autosize=1;strokeColor=none;fillColor=none;fontSize=30;" vertex="1" parent="1">
          <mxGeometry x="185" y="980" width="60" height="50" as="geometry" />
        </mxCell>
        <mxCell id="TXZ1IOUvcdeBmq6Gg83D-20" value="" style="endArrow=classic;html=1;rounded=0;fontSize=30;strokeWidth=1;exitX=0.917;exitY=0.8;exitDx=0;exitDy=0;exitPerimeter=0;entryX=1;entryY=0.5;entryDx=0;entryDy=0;" edge="1" parent="1" source="TXZ1IOUvcdeBmq6Gg83D-18" target="TXZ1IOUvcdeBmq6Gg83D-16">
          <mxGeometry width="50" height="50" relative="1" as="geometry">
            <mxPoint x="200" y="1160" as="sourcePoint" />
            <mxPoint x="250" y="1110" as="targetPoint" />
          </mxGeometry>
        </mxCell>
        <mxCell id="TXZ1IOUvcdeBmq6Gg83D-26" value="" style="edgeStyle=orthogonalEdgeStyle;rounded=0;orthogonalLoop=1;jettySize=auto;html=1;fontSize=30;strokeWidth=1;" edge="1" parent="1" source="TXZ1IOUvcdeBmq6Gg83D-21" target="TXZ1IOUvcdeBmq6Gg83D-25">
          <mxGeometry relative="1" as="geometry" />
        </mxCell>
        <mxCell id="TXZ1IOUvcdeBmq6Gg83D-21" value="Such Delight" style="whiteSpace=wrap;html=1;fontSize=30;" vertex="1" parent="1">
          <mxGeometry x="200" y="1080" width="120" height="80" as="geometry" />
        </mxCell>
        <mxCell id="TXZ1IOUvcdeBmq6Gg83D-23" value="" style="endArrow=classic;html=1;rounded=0;fontSize=30;strokeWidth=1;exitX=0.5;exitY=1;exitDx=0;exitDy=0;entryX=0;entryY=0.5;entryDx=0;entryDy=0;" edge="1" parent="1" source="TXZ1IOUvcdeBmq6Gg83D-16" target="TXZ1IOUvcdeBmq6Gg83D-21">
          <mxGeometry width="50" height="50" relative="1" as="geometry">
            <mxPoint x="110" y="1150" as="sourcePoint" />
            <mxPoint x="160" y="1100" as="targetPoint" />
            <Array as="points">
              <mxPoint x="100" y="1120" />
            </Array>
          </mxGeometry>
        </mxCell>
        <mxCell id="TXZ1IOUvcdeBmq6Gg83D-25" value="Doge Amaze" style="whiteSpace=wrap;html=1;fontSize=30;" vertex="1" parent="1">
          <mxGeometry x="400" y="1080" width="120" height="80" as="geometry" />
        </mxCell>
        <mxCell id="TXZ1IOUvcdeBmq6Gg83D-27" value="" style="endArrow=classic;html=1;rounded=0;fontSize=30;strokeWidth=1;exitX=1;exitY=0.5;exitDx=0;exitDy=0;entryX=0.5;entryY=1;entryDx=0;entryDy=0;" edge="1" parent="1" source="TXZ1IOUvcdeBmq6Gg83D-25" target="TXZ1IOUvcdeBmq6Gg83D-3">
          <mxGeometry width="50" height="50" relative="1" as="geometry">
            <mxPoint x="720" y="1150" as="sourcePoint" />
            <mxPoint x="770" y="1100" as="targetPoint" />
            <Array as="points">
              <mxPoint x="700" y="1120" />
            </Array>
          </mxGeometry>
        </mxCell>
      </root>
    </mxGraphModel>
  </diagram>
</mxfile>
